<svg width="10" height="9" viewBox="0 0 10 9" fill="none" xmlns="http://www.w3.org/2000/svg">
<path d="M0.129272 1.95996L2.05798 3.38867L2.06287 3.3916L3.9906 5.17773L3.99353 5.17969C4.072 5.2622 4.1765 5.37734 4.28845 5.4707C4.3443 5.51727 4.40076 5.55726 4.45447 5.58496C4.50847 5.61279 4.55678 5.62665 4.59802 5.625C4.64031 5.62328 4.69036 5.60685 4.74548 5.57813C4.80011 5.54963 4.85711 5.51007 4.91345 5.46484C5.02624 5.3743 5.13233 5.26387 5.20544 5.18164L5.2074 5.17969C5.20794 5.1791 5.20832 5.17786 5.20935 5.17676C5.21162 5.17431 5.21566 5.17076 5.22009 5.16602C5.22887 5.15661 5.24156 5.14265 5.25818 5.125C5.29192 5.08917 5.3416 5.03727 5.40271 4.97363C5.52511 4.84618 5.69642 4.66999 5.89099 4.47852C6.27913 4.09658 6.76386 3.6479 7.14294 3.3877C7.37943 3.22514 7.86052 2.86824 8.28357 2.55371C8.4948 2.39666 8.69157 2.24977 8.83533 2.14355C8.90699 2.09061 8.96626 2.04799 9.0072 2.01855C9.02736 2.00406 9.04368 1.99207 9.05505 1.98438C9.06058 1.98064 9.06649 1.97707 9.07068 1.97461C9.07236 1.97362 9.07557 1.97136 9.07947 1.96973C9.08041 1.96934 9.08798 1.96636 9.09705 1.96582C9.10151 1.96558 9.1144 1.96531 9.12732 1.97363C9.14419 1.98458 9.14967 2.00229 9.14978 2.01563C9.14917 2.02329 9.14624 2.03377 9.1449 2.03711C9.14426 2.0384 9.14359 2.04086 9.14294 2.04199C9.14202 2.04351 9.14055 2.04514 9.14001 2.0459C9.13889 2.04748 9.13725 2.04931 9.13611 2.05078C9.13371 2.05386 9.13041 2.05848 9.12634 2.06348C9.11817 2.07351 9.1065 2.08809 9.09119 2.10645C9.06001 2.14381 9.01359 2.19793 8.95544 2.2666C8.83907 2.40404 8.67264 2.59994 8.47205 2.83398C8.0709 3.30202 7.5336 3.92479 6.98767 4.54688C6.4417 5.16901 5.8864 5.79122 5.45154 6.25781C5.23446 6.49073 5.04679 6.6855 4.90466 6.82227C4.83376 6.89048 4.77335 6.94557 4.72595 6.9834C4.70233 7.00224 4.68011 7.01725 4.6615 7.02832C4.65221 7.03384 4.64253 7.03928 4.63318 7.04297C4.62438 7.0464 4.6128 7.0498 4.59998 7.0498C4.57667 7.0498 4.55313 7.03941 4.53455 7.0293C4.51428 7.01823 4.49108 7.00319 4.46619 6.98438C4.41583 6.94629 4.35266 6.89086 4.27966 6.82227C4.13356 6.68495 3.94341 6.48943 3.72498 6.25586C3.28744 5.78798 2.73424 5.16409 2.19177 4.54102C1.64925 3.91788 1.11691 3.29447 0.720093 2.82715C0.521676 2.59348 0.356493 2.39901 0.241577 2.2627C0.184241 2.19468 0.139457 2.14101 0.108765 2.10449C0.0934161 2.08623 0.0815311 2.07194 0.0736084 2.0625C0.0696831 2.05782 0.0668317 2.05416 0.0648193 2.05176C0.0638638 2.05062 0.0633725 2.04943 0.0628662 2.04883H0.0618896L0.0501709 2.03418L0.0501709 1.90039L0.129272 1.95996Z" fill="#BCA489" stroke="#BFA88F" stroke-width="0.1"/>
</svg>
